HIERARCHY
ROOT Hips
{
 OFFSET 0.000000 0.000000 0.000000
 CHANNELS 6 Xposition Yposition Zposition Yrotation Xrotation Zrotation
 JOINT Chest
 {
  OFFSET 0.000000 9.585900 0.002600
  CHANNELS 3 Yrotation Xrotation Zrotation
  JOINT Chest2
  {
   OFFSET 0.000000 9.601200 -0.005300
   CHANNELS 3 Yrotation Xrotation Zrotation
   JOINT Chest3
   {
    OFFSET 0.000000 9.561800 0.000000
    CHANNELS 3 Yrotation Xrotation Zrotation
    JOINT Chest4
    {
     OFFSET 0.000000 9.552100 0.000000
     CHANNELS 3 Yrotation Xrotation Zrotation
     JOINT Neck
     {
      OFFSET 0.000000 14.453000 0.000000
      CHANNELS 3 Yrotation Xrotation Zrotation
      JOINT Head
      {
       OFFSET 0.000000 8.936500 -0.011300
       CHANNELS 3 Yrotation Xrotation Zrotation
       End Site
       {
        OFFSET 0.000000 17.073600 -0.006000
       }
      }
     }
     JOINT RightCollar
     {
      OFFSET -2.921100 9.558500 0.000000
      CHANNELS 3 Yrotation Xrotation Zrotation
      JOINT RightShoulder
      {
       OFFSET -13.519700 0.000000 0.000000
       CHANNELS 3 Yrotation Xrotation Zrotation
       JOINT RightElbow
       {
        OFFSET 0.000000 -29.696600 0.000000
        CHANNELS 3 Yrotation Xrotation Zrotation
        JOINT RightWrist
        {
         OFFSET 0.000000 -24.004700 0.000000
         CHANNELS 3 Yrotation Xrotation Zrotation
         End Site
         {
          OFFSET 0.000000 -17.728500 0.000000
         }
        }
       }
      }
     }
     JOINT LeftCollar
     {
      OFFSET 2.921100 9.558500 0.000000
      CHANNELS 3 Yrotation Xrotation Zrotation
      JOINT LeftShoulder
      {
       OFFSET 13.519700 0.000000 0.000000
       CHANNELS 3 Yrotation Xrotation Zrotation
       JOINT LeftElbow
       {
        OFFSET 0.000000 -29.696600 0.000000
        CHANNELS 3 Yrotation Xrotation Zrotation
        JOINT LeftWrist
        {
         OFFSET 0.000000 -24.004700 0.000000
         CHANNELS 3 Yrotation Xrotation Zrotation
         End Site
         {
          OFFSET 0.000000 -17.728500 0.000000
         }
        }
       }
      }
     }
    }
   }
  }
 }
 JOINT RightHip
 {
  OFFSET -7.771700 -0.012900 -0.001300
  CHANNELS 3 Yrotation Xrotation Zrotation
  JOINT RightKnee
  {
   OFFSET 0.000000 -40.869800 0.001200
   CHANNELS 3 Yrotation Xrotation Zrotation
   JOINT RightAnkle
   {
    OFFSET 0.000000 -39.717900 0.002100
    CHANNELS 3 Yrotation Xrotation Zrotation
    JOINT RightToe
    {
     OFFSET 0.000000 -4.965400 11.033500
     CHANNELS 3 Yrotation Xrotation Zrotation
     End Site
     {
      OFFSET 0.000000 -1.423100 5.872300
     }
    }
   }
  }
 }
 JOINT LeftHip
 {
  OFFSET 7.771700 -0.012900 -0.001300
  CHANNELS 3 Yrotation Xrotation Zrotation
  JOINT LeftKnee
  {
   OFFSET 0.000000 -40.869800 0.001200
   CHANNELS 3 Yrotation Xrotation Zrotation
   JOINT LeftAnkle
   {
    OFFSET 0.000000 -39.717900 0.002100
    CHANNELS 3 Yrotation Xrotation Zrotation
    JOINT LeftToe
    {
     OFFSET 0.000000 -4.965400 11.033500
     CHANNELS 3 Yrotation Xrotation Zrotation
     End Site
     {
      OFFSET 0.000000 -1.423100 5.872300
     }
    }
   }
  }
 }
}
MOTION
Frames: 12
Frame Time: 0.008333
-5.819005 52.522384 28.495627 177.145820 -31.034426 -10.164225 0.764209 13.154599 5.341966 0.271119 7.569275 2.139597 0.384237 9.459392 2.686185 0.280850 7.572061 2.140612 4.910239 20.528949 -2.161160 5.846655 -3.697131 -3.522954 0.499072 3.414708 -2.158827 -14.182291 -5.523176 6.774260 84.370083 -84.434414 -68.188598 10.977366 -3.768909 -17.617702 -9.880301 4.234399 -3.323989 7.914485 -2.456175 -2.458223 -98.361708 -72.236403 109.146857 9.482489 -8.929400 -7.124806 -16.374549 -34.190035 7.036258 23.630381 85.495903 20.627366 1.091768 -16.041257 -0.029452 -0.019354 0.311750 -0.317451 -16.020848 -47.469073 16.668304 167.685612 77.933594 164.046466 -0.281458 -16.695537 -0.547672 -0.801955 -2.256257 -0.421788
-5.757904 52.745922 28.476438 177.157424 -30.992562 -10.425199 0.848139 13.162937 5.598271 0.290074 7.600147 2.146649 0.374811 9.414463 2.702595 0.256464 7.530237 2.145020 4.921144 20.536838 -2.184739 5.857275 -3.691507 -3.546958 0.508864 3.374685 -2.156272 -14.159485 -5.524046 6.750634 83.942425 -84.430717 -67.771402 10.985506 -3.761502 -17.621159 -9.898441 4.221387 -3.310520 7.976626 -2.494801 -2.445783 -98.414953 -72.383345 109.254600 9.558536 -8.957583 -6.902658 -16.579482 -34.156358 7.357163 23.344987 85.538225 20.400462 1.138425 -16.064260 -0.072119 -0.030674 0.297314 -0.283693 -16.287217 -47.388756 16.980378 167.156673 77.974430 163.580819 -0.074667 -16.248463 -0.558281 -1.029153 -2.693482 -0.518345
-5.706832 52.943832 28.458269 177.168333 -30.937578 -10.631732 0.909983 13.163670 5.800445 0.280498 7.591300 2.161412 0.364209 9.370998 2.701936 0.265650 7.540004 2.155801 4.925473 20.536020 -2.213234 5.868329 -3.690032 -3.574470 0.502205 3.342966 -2.165155 -14.122683 -5.556600 6.725251 83.640015 -84.377703 -67.451154 11.010895 -3.748389 -17.593509 -9.928229 4.187639 -3.306838 8.034341 -2.532880 -2.429327 -98.451770 -72.512584 109.347187 9.633249 -8.998168 -6.678476 -16.741894 -34.127488 7.611016 22.929654 85.554097 20.038018 1.192219 -16.099305 -0.126562 -0.046350 0.292528 -0.194438 -16.501215 -47.335558 17.234962 166.731573 78.013517 163.211649 0.062021 -15.898480 -0.574987 -1.187146 -3.042533 -0.578876
-5.663607 53.118876 28.436849 177.179159 -30.903973 -10.800975 0.961367 13.188267 5.971780 0.265864 7.556629 2.167050 0.366613 9.380730 2.711741 0.260525 7.528606 2.163065 4.932492 20.532623 -2.244873 5.882651 -3.692379 -3.603457 0.505120 3.305730 -2.182867 -14.106703 -5.569421 6.709794 83.576687 -84.338964 -67.377543 11.026013 -3.732975 -17.581291 -9.940256 4.140114 -3.309602 8.074055 -2.569439 -2.412440 -98.441845 -72.603556 109.395369 9.700760 -9.044209 -6.454638 -16.874559 -34.067781 7.828446 22.452133 85.550503 19.589532 1.198564 -16.155172 -0.165263 -0.024628 0.318685 -0.171606 -16.670418 -47.268103 17.448430 166.420481 78.052674 162.941518 0.143307 -15.630356 -0.588060 -1.291148 -3.319608 -0.615976
-5.625407 53.271773 28.415024 177.175367 -30.878381 -10.948438 1.014025 13.222811 6.129126 0.258966 7.520026 2.170702 0.369468 9.398196 2.724684 0.258885 7.520068 2.170632 4.937162 20.524546 -2.276794 5.892190 -3.704725 -3.629213 0.516429 3.242444 -2.204731 -14.064177 -5.608866 6.670996 83.104814 -84.311914 -66.931050 11.045974 -3.709203 -17.563660 -9.942281 4.062347 -3.296448 8.095236 -2.590703 -2.408689 -98.376529 -72.648531 109.392179 9.756350 -9.094415 -6.245484 -16.978369 -34.004786 8.022523 21.948565 85.542690 19.118854 1.188966 -16.206776 -0.205683 -0.013686 0.341797 -0.144028 -16.818054 -47.224388 17.625732 166.055393 78.058289 162.620928 0.254916 -15.366218 -0.594116 -1.423921 -3.598028 -0.670505
-5.596080 53.397519 28.403878 177.166873 -30.777633 -11.063431 1.050954 13.231003 6.261904 0.255605 7.467244 2.175080 0.366784 9.390019 2.734475 0.256752 7.513505 2.178501 4.950381 20.526667 -2.302786 5.889936 -3.737885 -3.664091 0.550686 3.156529 -2.243786 -14.038012 -5.629769 6.640121 82.645525 -84.290230 -66.497555 11.038536 -3.687837 -17.570076 -9.943239 4.007758 -3.312345 8.108241 -2.652064 -2.384023 -98.245568 -72.639812 109.327917 9.806047 -9.156415 -6.054885 -17.085694 -34.039586 8.192173 21.172119 85.551091 18.383383 1.242297 -16.254443 -0.259123 -0.034682 0.356505 -0.103530 -16.978585 -47.277773 17.800238 165.718105 78.047659 162.325275 0.326850 -15.174554 -0.603325 -1.520315 -3.802569 -0.710240
-5.569107 53.510486 28.385894 177.145654 -30.733655 -11.178942 1.096661 13.242322 6.396781 0.259268 7.466386 2.183790 0.367677 9.384683 2.745957 0.257336 7.509343 2.187734 4.940592 20.493826 -2.338319 5.896078 -3.747167 -3.690316 0.551055 3.100992 -2.280281 -14.003720 -5.672331 6.618886 82.313481 -84.278914 -66.178864 11.091096 -3.639283 -17.511468 -9.941278 3.934376 -3.305663 8.108913 -2.682490 -2.388158 -98.106617 -72.568731 109.258748 9.852639 -9.236028 -5.877639 -17.183495 -34.018976 8.354393 20.671549 85.557291 17.902537 1.302254 -16.297444 -0.304406 -0.069789 0.359107 -0.079218 -17.115831 -47.282081 17.969042 165.436149 78.026411 162.077932 0.405515 -14.988149 -0.608120 -1.618774 -4.009300 -0.751596
-5.553889 53.606235 28.368374 177.152445 -30.678532 -11.261362 1.099355 13.202200 6.478296 0.247990 7.562590 2.213841 0.376783 9.353696 2.753610 0.259230 7.478981 2.179824 4.937903 20.475147 -2.373207 5.888248 -3.771276 -3.703122 0.571322 3.034197 -2.330060 -14.009331 -5.672405 6.618510 82.264649 -84.273231 -66.108098 11.138508 -3.576345 -17.460638 -9.935924 3.859893 -3.299268 8.105638 -2.674577 -2.408482 -98.043338 -72.443863 109.263433 9.892827 -9.331152 -5.717392 -17.338581 -34.021030 8.455289 20.731204 85.567729 17.955713 1.399521 -16.363573 -0.377165 -0.106029 0.344741 -0.058096 -17.238997 -47.307663 18.077539 165.211227 78.000822 161.876286 0.449104 -14.873326 -0.605482 -1.675679 -4.149434 -0.784647
-5.539918 53.691535 28.347826 177.116906 -30.661363 -11.335903 1.140354 13.234672 6.577598 0.247336 7.562063 2.223329 0.379239 9.369807 2.773171 0.268934 7.464387 2.183395 4.935101 20.472058 -2.405044 5.886394 -3.817103 -3.753910 0.612092 2.952832 -2.398663 -14.038227 -5.659767 6.627641 82.236797 -84.279803 -66.044456 11.155063 -3.529902 -17.472275 -9.929741 3.775081 -3.302592 8.094853 -2.717234 -2.402068 -97.837000 -72.344996 109.110401 9.935327 -9.435888 -5.582760 -17.426811 -33.996311 8.576632 20.788144 85.581860 18.011339 1.395169 -16.435494 -0.413939 -0.108017 0.359618 -0.048522 -17.349167 -47.312603 18.198752 165.013876 77.956543 161.688085 0.552336 -14.714480 -0.610335 -1.782334 -4.334214 -0.821917
-5.537941 53.760730 28.332311 177.106781 -30.604607 -11.370206 1.123182 13.283583 6.623121 0.269454 7.499184 2.221093 0.377007 9.399942 2.794787 0.273427 7.453688 2.189904 4.931474 20.452327 -2.444322 5.893411 -3.853476 -3.798901 0.633999 2.884672 -2.450732 -14.034087 -5.686772 6.612463 81.919491 -84.309969 -65.706041 11.186315 -3.486243 -17.476107 -9.918933 3.685472 -3.304907 8.066331 -2.781683 -2.370781 -97.598288 -72.290627 108.922999 9.989041 -9.545254 -5.474370 -17.519909 -34.028793 8.644857 20.979114 85.610216 18.196988 1.369383 -16.549759 -0.434752 -0.079632 0.407207 -0.046673 -17.429459 -47.357343 18.271518 164.931742 77.930890 161.609077 0.567773 -14.665350 -0.617598 -1.802066 -4.406480 -0.825209
-5.541381 53.819718 28.317595 177.110657 -30.550449 -11.391709 1.103126 13.279797 6.643344 0.280812 7.465088 2.219878 0.371912 9.439652 2.813905 0.274373 7.460317 2.200683 4.927046 20.417845 -2.481902 5.902021 -3.876113 -3.832278 0.715227 2.777413 -2.521753 -14.089598 -5.690657 6.590507 81.278298 -84.368980 -65.041509 11.224940 -3.422104 -17.451730 -9.920701 3.595249 -3.300275 8.069272 -2.779561 -2.375862 -97.553889 -72.260732 108.895624 10.017375 -9.687141 -5.398420 -17.609159 -34.080282 8.675498 20.589605 85.672819 17.806306 1.443712 -16.637033 -0.462280 -0.079938 0.424435 -0.045794 -17.499937 -47.405396 18.318505 164.887332 77.907150 161.561139 0.568780 -14.643406 -0.616581 -1.802312 -4.443708 -0.832115
-5.553381 53.865710 28.309929 177.131529 -30.454953 -11.378508 1.053610 13.225593 6.618776 0.279082 7.480791 2.227651 0.375135 9.440282 2.822693 0.276085 7.466127 2.207381 4.922012 20.372595 -2.518464 5.905236 -3.883306 -3.857248 0.737142 2.711442 -2.562002 -14.098487 -5.692549 6.584367 81.120204 -84.399924 -64.853004 11.255204 -3.354870 -17.379939 -9.930007 3.494321 -3.269430 8.073913 -2.783619 -2.375065 -97.571784 -72.217753 108.911917 10.091593 -9.772248 -5.348756 -17.698034 -34.205761 8.675299 20.900256 85.746609 18.100611 1.480699 -16.700981 -0.477335 -0.096150 0.417206 -0.043813 -17.546943 -47.500813 18.322868 164.889791 77.893470 161.560564 0.512999 -14.697222 -0.618672 -1.754005 -4.411095 -0.807296
